<svg width="16px" height="18px" viewBox="0 0 16 18" version="1.1" xmlns="http://www.w3.org/2000/svg" xmlns:xlink="http://www.w3.org/1999/xlink"><defs><polygon id="path-1" points="0 0 15.7927359 0 15.7927359 17.99975 0 17.99975"></polygon></defs><g id="Адаптив" stroke="none" stroke-width="1" fill="none" fill-rule="evenodd"><g id="Theme_icons" transform="translate(-125.000000, -337.000000)"><g id="moscow_icon" transform="translate(125.000000, 337.000000)"><mask id="mask-2" fill="white"><use xlink:href="#path-1"></use></mask><g id="Clip-2"></g><path d="M15.6973359,5.98975 C15.8793359,5.85775 15.7853359,5.57075 15.5603359,5.57075 L10.0563359,5.57075 C9.95633594,5.57075 9.86733594,5.50575 9.83633594,5.40975 L8.11733594,0.15975 C8.04733594,-0.05325 7.74633594,-0.05325 7.67633594,0.15975 L5.95733594,5.40975 C5.92633594,5.50575 5.83733594,5.57075 5.73633594,5.57075 L0.232335939,5.57075 C0.00833593936,5.57075 -0.0856640606,5.85775 0.0953359394,5.98975 L4.53833594,9.23975 C4.61933594,9.29875 4.65333594,9.40275 4.62233594,9.49775 L2.93633594,14.74175 C2.86833594,14.95575 3.11233594,15.13275 3.29433594,15.00175 L7.57133594,11.91475 L7.57133594,14.41075 L6.26933594,17.99975 L9.58233594,17.99975 L8.16833594,14.41075 L8.16833594,11.87575 L12.4993359,15.00175 C12.6803359,15.13275 12.9253359,14.95575 12.8563359,14.74175 L11.1713359,9.49775 C11.1393359,9.40275 11.1743359,9.29875 11.2553359,9.23975 L15.6973359,5.98975 Z" id="Fill-1" fill="#E42320" mask="url(#mask-2)"></path></g></g></g></svg>