<svg width="36" height="47" viewBox="0 0 36 47" fill="none" xmlns="http://www.w3.org/2000/svg">
<path fill-rule="evenodd" clip-rule="evenodd" d="M35.9998 0V34.9064C36.0051 35.4291 35.9048 35.9477 35.7045 36.4321C35.5042 36.9165 35.208 37.3572 34.833 37.7286C34.458 38.1001 34.0117 38.395 33.5198 38.5962C33.0279 38.7975 32.5002 38.901 31.9672 38.901H28.0268C23.7061 38.901 20.9467 40.1666 17.4729 43.7375L15.0418 46.2857V38.901H4.0328C3.49982 38.901 2.97213 38.7975 2.48022 38.5962C1.98832 38.395 1.54196 38.1001 1.16697 37.7286C0.791977 37.3572 0.495783 36.9165 0.295513 36.4321C0.0952434 35.9477 -0.00512814 35.4291 0.000201651 34.9064V0H35.9998ZM33.3498 2.6273H2.6502V34.9064C2.64944 35.0849 2.68464 35.2619 2.75378 35.4271C2.82293 35.5922 2.92465 35.7424 3.05311 35.8689C3.18157 35.9954 3.33425 36.0958 3.50237 36.1643C3.67049 36.2328 3.85075 36.2681 4.0328 36.2681H17.2828V40.8842C20.9467 36.8952 24.2304 36.2681 28.0383 36.2681H31.9902C32.3559 36.2651 32.7055 36.1201 32.9625 35.8649C33.2195 35.6097 33.3629 35.2651 33.3613 34.9064L33.3498 2.6273Z" fill="#CC0029"/>
</svg>
